# xmcd
#
# Track frame offsets: 
#        150
#        30422
#        62277
#        91812
#        123942
#        157727
#        190780
#        216887
#
# Disc length: 3381 seconds
#
# Revision: 0
# Processed by: cddbd v1.5.2PL0 Copyright (c) Steve Scherf et al.
# Submitted via: ExactAudioCopyFreeDBPlugin 1.0
#
DISCID=550d3308
DTITLE=宫下富实夫 - ふれあい
DYEAR=1900
DGENRE=Alternative
TTITLE0=夢の旅
TTITLE1=やすらぎをあなたへ
TTITLE2=鼓動
TTITLE3=す-つとしたい時
TTITLE4=よろこびの翼
TTITLE5=あなたとわたし
TTITLE6=風に舞うエンジェル
TTITLE7=聖なる泉
EXTD=
EXTT0=
EXTT1=
EXTT2=
EXTT3=
EXTT4=
EXTT5=
EXTT6=
EXTT7=
PLAYORDER=
